<svg xmlns="http://www.w3.org/2000/svg" xmlns:xlink="http://www.w3.org/1999/xlink" width="1920" height="1080" viewBox="0 0 1920 1080">
  <defs>
    <clipPath id="clip-Web_1920_1">
      <rect width="1920" height="1080"/>
    </clipPath>
  </defs>
  <g id="Web_1920_1" data-name="Web 1920 – 1" clip-path="url(#clip-Web_1920_1)">
    <rect width="1920" height="1080" fill="#fff"/>
    <path id="Path_1" data-name="Path 1" d="M1651.588,982.637" fill="none" stroke="#707070" stroke-width="1"/>
    <g id="Ellipse_1" data-name="Ellipse 1" transform="translate(161 94)" fill="rgba(164,229,236,0.49)" stroke="#37b5c9" stroke-width="1">
      <ellipse cx="808.5" cy="666.5" rx="808.5" ry="666.5" stroke="none"/>
      <ellipse cx="808.5" cy="666.5" rx="808" ry="666" fill="none"/>
    </g>
    <g id="Group_1" data-name="Group 1" transform="translate(878 85)">
      <path id="Path_2" data-name="Path 2" d="M865.615,337.034h0Z" transform="translate(-330.386 -86.111)" fill="#3f3d56"/>
      <path id="Path_4" data-name="Path 4" d="M463.69,318.083c12.311,10.259-12.311,42.178-12.311,42.178s58.477,2.28,53.86,2.28-8.464-48.447-8.464-48.447S451.379,307.823,463.69,318.083Z" transform="translate(-330.386 -86.111)" fill="#ffb8b8"/>
      <path id="Path_5" data-name="Path 5" d="M439.915,447.914l53,19,29,12s8.126,22.241,16.365,44.325c4.21,11.286,8.521,22.716,11.635,30.675,9,23-20,60-20,60s3,11,0,16a54.358,54.358,0,0,0-4,8c-1,2-12,1-24,0s-1-20-1-20,10-40,11-41c.934-.934,3.612-7.973.7-10.529a25.95,25.95,0,0,1-6.537-8.13,30.091,30.091,0,0,0-5.167-7.342s-31.695-46.741-47.347-57.37-52,2-52,2,17.347,26.37,17.347,32.37,1,9,4,11,2,6,2,10,3,12,8,16,6,8,5,16-28,4-28,4l-13-25s-20-32-33-66c-6.5-17,.25-28.5,8.625-35.75a41.391,41.391,0,0,1,29.02-9.764l47.007,2.144-33.653-9.63Z" transform="translate(-330.386 -86.111)" fill="rgba(67,131,246,0.85)"/>
      <path id="Path_6" data-name="Path 6" d="M614.915,358.914l57-26s20-34,8-38-22,30-22,30l-41,8Z" transform="translate(-330.386 -86.111)" fill="#ffb8b8"/>
      <path id="Path_7" data-name="Path 7" d="M388.915,376.914s-29,26-30,29-19,11-27-3,18-13,18-13l18-23Z" transform="translate(-330.386 -86.111)" fill="#ffb8b8"/>
      <path id="Path_8" data-name="Path 8" d="M359.567,361.544l31,23,51-18c-9.479,29.678-2.052,61.109-33.188,79.315l118,40c-10.443-42.048,6.05-76.858,20.188-119.315,22.395-11.541,50.484-8.811,81,0v-41l-124,7-19.188,10.315-22.812-6.314C428.546,331.191,387.289,342.89,359.567,361.544Z" transform="translate(-330.386 -86.111)" fill="#7d24f5"/>
      <path id="Path_9" data-name="Path 9" d="M435.915,579.914c3,2,8,21,9,28s-8,10-13,11-4,4-7,7-14,4-29,1,7-22,9-23,8-24,8-24S432.915,577.914,435.915,579.914Z" transform="translate(-330.386 -86.111)" fill="#2f2e41"/>
      <path id="Path_10" data-name="Path 10" d="M518.915,634.914l8,21,7.564,11.346a25.7,25.7,0,0,1,3.632,20.91c-1.274,4.689-3.915,9.119-9.2,10.744-13,4-21-21-21-21s-7-14-12-27,4-20,4-20Z" transform="translate(-330.386 -86.111)" fill="#2f2e41"/>
      <circle id="Ellipse_2" data-name="Ellipse 2" cx="23.996" cy="23.996" r="23.996" transform="translate(126.179 196.666)" fill="#ffb8b8"/>
      <path id="Path_11" data-name="Path 11" d="M507.763,300.843a22.827,22.827,0,0,0-1.548-18.547c-3.082-5.466-9.018-10.59-20.43-10.879-24.9-.631-35.688,18.142-34.285,23.647s6.422,18.6,6.422,18.6-3.112-12.612,3.112-13.873,30.345-6.306,37.348-.631a14.233,14.233,0,0,1,5.447,13.243Z" transform="translate(-330.386 -86.111)" fill="#2f2e41"/>
      <circle id="Ellipse_3" data-name="Ellipse 3" cx="26" cy="26" r="26" transform="translate(332.182 625.748)" fill="#e6e6e6"/>
    </g>
    <g id="Rectangle_1" data-name="Rectangle 1" transform="translate(431 985)" fill="#6081c3" stroke="#707070" stroke-width="1">
      <rect width="1059" height="95" stroke="none"/>
      <rect x="0.5" y="0.5" width="1058" height="94" fill="none"/>
    </g>
    <g id="Rectangle_2" data-name="Rectangle 2" transform="translate(563 890)" fill="#6081c3" stroke="#707070" stroke-width="1">
      <rect width="795" height="95" stroke="none"/>
      <rect x="0.5" y="0.5" width="794" height="94" fill="none"/>
    </g>
    <g id="Rectangle_3" data-name="Rectangle 3" transform="translate(681 795)" fill="#6081c3" stroke="#707070" stroke-width="1">
      <rect width="559" height="95" stroke="none"/>
      <rect x="0.5" y="0.5" width="558" height="94" fill="none"/>
    </g>
    <g id="Rectangle_4" data-name="Rectangle 4" transform="translate(807 700)" fill="#6081c3" stroke="#707070" stroke-width="1">
      <rect width="307" height="95" stroke="none"/>
      <rect x="0.5" y="0.5" width="306" height="94" fill="none"/>
    </g>
    <g id="Rectangle_5" data-name="Rectangle 5" transform="translate(875 605)" fill="#6081c3" stroke="#707070" stroke-width="1">
      <rect width="170" height="95" stroke="none"/>
      <rect x="0.5" y="0.5" width="169" height="94" fill="none"/>
    </g>
    <g id="Group_2" data-name="Group 2" transform="translate(0 -64)">
      <path id="Path_12" data-name="Path 12" d="M697.829,731.5h-3c0-100.728,18.138-195.4,51.073-266.565C779.007,393.4,823.2,354,870.329,354v3C775.212,357,697.829,525,697.829,731.5Z" transform="translate(732.671 315.5)" fill="#3f3d56"/>
      <path id="Path_13" data-name="Path 13" d="M935.329,266c0,23.472-10.3,53.5-23,53.5s-23-30.028-23-53.5,10.3-31.5,23-31.5S935.329,242.528,935.329,266Z" transform="translate(713.671 318.5)" fill="#4383f6"/>
      <path id="Path_14" data-name="Path 14" d="M1025.59,366.131c-23.217,3.454-54.433-2.312-56.3-14.876s26.316-27.168,49.533-30.623,32.672,5.55,34.542,18.114S1048.81,362.677,1025.59,366.131Z" transform="translate(689.671 302.5)" fill="rgba(67,131,246,0.71)"/>
      <path id="Path_15" data-name="Path 15" d="M922.707,455.424c-8.3-21.955-9.292-53.684,2.589-58.177s32.135,19.951,40.437,41.906,1.51,33.106-10.371,37.6S931.009,477.379,922.707,455.424Z" transform="translate(720.671 305.5)" fill="#4383f6"/>
      <ellipse id="Ellipse_6" data-name="Ellipse 6" cx="21.5" cy="21" rx="21.5" ry="21" transform="translate(1616 649)" fill="#6c63ff"/>
      <path id="Path_16" data-name="Path 16" d="M530.829,742.5h-3c0-206.5-77.383-374.5-172.5-374.5v-3c47.133,0,91.322,39.4,124.427,110.935C512.691,547.1,530.829,641.772,530.829,742.5Z" transform="translate(-19.329 304.5)" fill="#3f3d56"/>
      <path id="Path_17" data-name="Path 17" d="M290.329,277c0,23.472,10.3,53.5,23,53.5s23-30.028,23-53.5-10.3-31.5-23-31.5S290.329,253.528,290.329,277Z" transform="translate(326.671 24.5)" fill="#4383f6"/>
      <path id="Path_18" data-name="Path 18" d="M200.064,377.131c23.217,3.454,54.433-2.312,56.3-14.876s-26.316-27.168-49.533-30.623-32.672,5.55-34.542,18.114S176.848,373.677,200.064,377.131Z" transform="translate(18.671 283.5)" fill="#4383f6"/>
      <path id="Path_19" data-name="Path 19" d="M302.951,466.424c8.3-21.955,9.292-53.684-2.589-58.177s-32.134,19.951-40.437,41.906-1.51,33.106,10.371,37.6S294.649,488.379,302.951,466.424Z" transform="translate(-7.329 294.5)" fill="#4383f6"/>
      <circle id="Ellipse_9" data-name="Ellipse 9" cx="2.656" cy="2.656" r="2.656" transform="translate(398.509 214.645)" fill="#e6e6e6"/>
      <circle id="Ellipse_10" data-name="Ellipse 10" cx="2.656" cy="2.656" r="2.656" transform="translate(465.791 214.645)" fill="#e6e6e6"/>
      <path id="Path_40" data-name="Path 40" d="M530.829,742.5h-3c0-206.5-77.383-374.5-172.5-374.5v-3c47.133,0,91.322,39.4,124.427,110.935C512.691,547.1,530.829,641.772,530.829,742.5Z" transform="translate(-19.329 304.5)" fill="#3f3d56"/>
    </g>
    <path id="Path_41" data-name="Path 41" d="M530.829,742.5h-3c0-206.5-77.383-374.5-172.5-374.5v-3c47.133,0,91.322,39.4,124.427,110.935C512.691,547.1,530.829,641.772,530.829,742.5Z" transform="translate(99.671 147.5)" fill="#3f3d56"/>
    <path id="Path_42" data-name="Path 42" d="M530.829,742.5h-3c0-206.5-77.383-374.5-172.5-374.5v-3c47.133,0,91.322,39.4,124.427,110.935C512.691,547.1,530.829,641.772,530.829,742.5Z" transform="translate(217.671 52.5)" fill="#3f3d56"/>
    <path id="Path_43" data-name="Path 43" d="M530.829,742.5h-3c0-206.5-77.383-374.5-172.5-374.5v-3c47.133,0,91.322,39.4,124.427,110.935C512.691,547.1,530.829,641.772,530.829,742.5Z" transform="translate(314.671 -42.5)" fill="#3f3d56"/>
    <path id="Path_44" data-name="Path 44" d="M697.829,731.5h-3c0-100.728,18.138-195.4,51.073-266.565C779.007,393.4,823.2,354,870.329,354v3C775.212,357,697.829,525,697.829,731.5Z" transform="translate(595.671 162.5)" fill="#3f3d56"/>
    <path id="Path_45" data-name="Path 45" d="M697.829,731.5h-3c0-100.728,18.138-195.4,51.073-266.565C779.007,393.4,823.2,354,870.329,354v3C775.212,357,697.829,525,697.829,731.5Z" transform="translate(473.671 63.5)" fill="#3f3d56"/>
    <path id="Path_46" data-name="Path 46" d="M697.829,731.5h-3c0-100.728,18.138-195.4,51.073-266.565C779.007,393.4,823.2,354,870.329,354v3C775.212,357,697.829,525,697.829,731.5Z" transform="translate(732.671 251.5)" fill="#3f3d56"/>
    <path id="Path_47" data-name="Path 47" d="M697.829,731.5h-3c0-100.728,18.138-195.4,51.073-266.565C779.007,393.4,823.2,354,870.329,354v3C775.212,357,697.829,525,697.829,731.5Z" transform="translate(385.671 -31.5)" fill="#3f3d56"/>
    <ellipse id="Ellipse_11" data-name="Ellipse 11" cx="21.5" cy="21" rx="21.5" ry="21" transform="translate(1472 490)" fill="#6c63ff"/>
    <ellipse id="Ellipse_12" data-name="Ellipse 12" cx="21.5" cy="21" rx="21.5" ry="21" transform="translate(1357 397)" fill="#6c63ff"/>
    <ellipse id="Ellipse_13" data-name="Ellipse 13" cx="21.5" cy="21" rx="21.5" ry="21" transform="translate(1269 302)" fill="#6c63ff"/>
    <ellipse id="Ellipse_14" data-name="Ellipse 14" cx="21.5" cy="21" rx="21.5" ry="21" transform="translate(287 585)" fill="#6c63ff"/>
    <ellipse id="Ellipse_15" data-name="Ellipse 15" cx="21.5" cy="21" rx="21.5" ry="21" transform="translate(388 490)" fill="#6c63ff"/>
    <ellipse id="Ellipse_16" data-name="Ellipse 16" cx="21.5" cy="21" rx="21.5" ry="21" transform="translate(517 397)" fill="#6c63ff"/>
    <ellipse id="Ellipse_17" data-name="Ellipse 17" cx="21.5" cy="21" rx="21.5" ry="21" transform="translate(614 302)" fill="#6c63ff"/>
    <path id="Path_48" data-name="Path 48" d="M922.707,455.424c-8.3-21.955-9.292-53.684,2.589-58.177s32.135,19.951,40.437,41.906,1.51,33.106-10.371,37.6S931.009,477.379,922.707,455.424Z" transform="translate(593.671 135.5)" fill="#4383f6"/>
    <path id="Path_49" data-name="Path 49" d="M922.707,455.424c-8.3-21.955-9.292-53.684,2.589-58.177s32.135,19.951,40.437,41.906,1.51,33.106-10.371,37.6S931.009,477.379,922.707,455.424Z" transform="translate(474.671 42.5)" fill="#4383f6"/>
    <path id="Path_50" data-name="Path 50" d="M922.707,455.424c-8.3-21.955-9.292-53.684,2.589-58.177s32.135,19.951,40.437,41.906,1.51,33.106-10.371,37.6S931.009,477.379,922.707,455.424Z" transform="translate(387.671 -60.5)" fill="#4383f6"/>
    <path id="Path_51" data-name="Path 51" d="M1025.59,366.131c-23.217,3.454-54.433-2.312-56.3-14.876s26.316-27.168,49.533-30.623,32.672,5.55,34.542,18.114S1048.81,362.677,1025.59,366.131Z" transform="translate(551.671 132.5)" fill="rgba(67,131,246,0.71)"/>
    <path id="Path_52" data-name="Path 52" d="M1025.59,366.131c-23.217,3.454-54.433-2.312-56.3-14.876s26.316-27.168,49.533-30.623,32.672,5.55,34.542,18.114S1048.81,362.677,1025.59,366.131Z" transform="translate(436.671 50.5)" fill="rgba(67,131,246,0.71)"/>
    <path id="Path_53" data-name="Path 53" d="M1025.59,366.131c-23.217,3.454-54.433-2.312-56.3-14.876s26.316-27.168,49.533-30.623,32.672,5.55,34.542,18.114S1048.81,362.677,1025.59,366.131Z" transform="translate(342.671 -65.5)" fill="rgba(67,131,246,0.71)"/>
    <path id="Path_54" data-name="Path 54" d="M935.329,266c0,23.472-10.3,53.5-23,53.5s-23-30.028-23-53.5,10.3-31.5,23-31.5S935.329,242.528,935.329,266Z" transform="translate(356.671 -22.5)" fill="#4383f6"/>
    <path id="Path_55" data-name="Path 55" d="M302.951,466.424c8.3-21.955,9.292-53.684-2.589-58.177s-32.134,19.951-40.437,41.906-1.51,33.106,10.371,37.6S294.649,488.379,302.951,466.424Z" transform="translate(88.671 132.5)" fill="#4383f6"/>
    <path id="Path_56" data-name="Path 56" d="M302.951,466.424c8.3-21.955,9.292-53.684-2.589-58.177s-32.134,19.951-40.437,41.906-1.51,33.106,10.371,37.6S294.649,488.379,302.951,466.424Z" transform="translate(207.671 31.5)" fill="#4383f6"/>
    <path id="Path_57" data-name="Path 57" d="M302.951,466.424c8.3-21.955,9.292-53.684-2.589-58.177s-32.134,19.951-40.437,41.906-1.51,33.106,10.371,37.6S294.649,488.379,302.951,466.424Z" transform="translate(298.671 -71.5)" fill="#4383f6"/>
    <path id="Path_58" data-name="Path 58" d="M200.064,377.131c23.217,3.454,54.433-2.312,56.3-14.876s-26.316-27.168-49.533-30.623-32.672,5.55-34.542,18.114S176.848,373.677,200.064,377.131Z" transform="translate(103.671 138.5)" fill="#4383f6"/>
    <path id="Path_59" data-name="Path 59" d="M200.064,377.131c23.217,3.454,54.433-2.312,56.3-14.876s-26.316-27.168-49.533-30.623-32.672,5.55-34.542,18.114S176.848,373.677,200.064,377.131Z" transform="translate(240.671 42.5)" fill="#4383f6"/>
    <path id="Path_60" data-name="Path 60" d="M200.064,377.131c23.217,3.454,54.433-2.312,56.3-14.876s-26.316-27.168-49.533-30.623-32.672,5.55-34.542,18.114S176.848,373.677,200.064,377.131Z" transform="translate(344.671 -52.5)" fill="#4383f6"/>
  </g>
</svg>
