<svg xmlns="http://www.w3.org/2000/svg" xmlns:xlink="http://www.w3.org/1999/xlink" width="1920" height="1080" viewBox="0 0 1920 1080">
  <defs>
    <linearGradient id="linear-gradient" x1="-20.453" y1="1" x2="-20.453" gradientUnits="objectBoundingBox">
      <stop offset="0" stop-color="gray" stop-opacity="0.251"/>
      <stop offset="0.535" stop-color="gray" stop-opacity="0.122"/>
      <stop offset="1" stop-color="gray" stop-opacity="0.102"/>
    </linearGradient>
    <clipPath id="clip-Web_1920_1">
      <rect width="1920" height="1080"/>
    </clipPath>
  </defs>
  <g id="Web_1920_1" data-name="Web 1920 – 1" clip-path="url(#clip-Web_1920_1)">
    <rect width="1920" height="1080" fill="#fff"/>
    <path id="Path_1" data-name="Path 1" d="M1651.588,982.637" fill="none" stroke="#707070" stroke-width="1"/>
    <g id="Ellipse_1" data-name="Ellipse 1" transform="translate(161 94)" fill="rgba(164,229,236,0.49)" stroke="#37b5c9" stroke-width="1">
      <ellipse cx="808.5" cy="666.5" rx="808.5" ry="666.5" stroke="none"/>
      <ellipse cx="808.5" cy="666.5" rx="808" ry="666" fill="none"/>
    </g>
    <g id="Group_1" data-name="Group 1" transform="translate(561 346)">
      <path id="Path_1-2" data-name="Path 1" d="M832.546,604.414s97.041,5.017,74.438,35.565-81.995-17.92-81.995-17.92Z" transform="translate(-207.801 -83.197)" fill="#ffb8b8"/>
      <path id="Path_2" data-name="Path 2" d="M653.717,313.448l19.752,4.938s11.522,34.566,19.752,65.84,24.69,125.1,24.69,125.1l127.61,89.433L830.3,632.8l-170-67L622.443,417.147Z" transform="translate(-207.801 -83.197)" fill="#1fc2dc"/>
      <path id="Path_3" data-name="Path 3" d="M464.5,291.607l-7.362,154.165L472.5,491.607l-45-33Z" opacity="0.2"/>
      <path id="Path_4" data-name="Path 4" d="M698.982,648.411s21.4,57.61,24.69,97.114,6.584,70.778,6.584,70.778H629.85L610.1,786.676V816.3H493.231s-32.92-106.99-19.752-120.158,138.265-69.132,138.265-69.132Z" transform="translate(-207.801 -83.197)" fill="#1b10e2"/>
      <circle id="Ellipse_1-2" data-name="Ellipse 1" cx="62.548" cy="62.548" r="62.548" transform="translate(302.713 42.607)" fill="#ffb8b8"/>
      <path id="Path_5" data-name="Path 5" d="M525.328,214.688l-4.938,72.424,62.548,83.946,31.275-79.009s-27.982-18.106-11.522-55.964Z" transform="translate(-207.801 -83.197)" fill="#ffb8b8"/>
      <path id="Path_6" data-name="Path 6" d="M708.031,662.4c0,14.82-41.15,37.86-41.15,37.86v8.23l-16.46,8.23-36.21-72.42-9.87,79s-72.43,11.53-95.47,0-34.57-6.58-67.49-18.1,13.17-166.25,13.17-166.25l-32.92-238.67,71.92-35.96,3.79-1.9,9.89-1.82,15.16-2.8,50.67,34.25,4.08,21.4,2.51,13.17,13.16-14.82,9.94-32.69,70.72,39.28L653.721,476.4S708.031,647.59,708.031,662.4Z" transform="translate(-207.801 -83.197)" fill="#4383f6"/>
      <path id="Path_7" data-name="Path 7" d="M466.072,713.428s75.716,60.9,39.5,72.424S449.612,723.3,449.612,723.3Z" transform="translate(-207.801 -83.197)" fill="#ffb8b8"/>
      <path id="Path_8" data-name="Path 8" d="M438.09,303.572l-16.46-3.292s-24.69,13.168-26.336,39.5S372.25,550.473,372.25,550.473l69.132,186,55.964-21.4L443.028,540.6l41.15-151.433Z" transform="translate(-207.801 -83.197)" fill="#1fc2dc"/>
      <circle id="Ellipse_2" data-name="Ellipse 2" cx="6" cy="6" r="6" transform="translate(366.5 258.607)" fill="#2f2e41"/>
      <circle id="Ellipse_3" data-name="Ellipse 3" cx="6" cy="6" r="6" transform="translate(366.5 297.607)" fill="#2f2e41"/>
      <circle id="Ellipse_4" data-name="Ellipse 4" cx="6" cy="6" r="6" transform="translate(400.5 554.607)" fill="#2f2e41"/>
      <path id="Path_9" data-name="Path 9" d="M520.254,124.274l-11.562-4.629s24.175-26.617,57.811-24.3l-9.46-10.415s23.125-9.258,44.147,15.044c11.051,12.775,23.837,27.791,31.808,44.707h12.383l-5.168,11.379L658.3,167.437l-18.566-2.044a63.584,63.584,0,0,1,.5,18.875,24.421,24.421,0,0,1-8.943,15.976h0s-14.339-29.681-14.339-34.31v11.572s-11.562-10.415-11.562-17.358l-6.307,8.1H557.043l6.307-10.415L539.174,161.3l9.46-12.73L511.2,201.14S489.771,141.632,520.254,124.274Z" transform="translate(-207.801 -83.197)" fill="#2f2e41"/>
      <path id="Path_19" data-name="Path 19" d="M0,100Z" transform="translate(584.398 283.545)" fill="#3f3d56"/>
      <path id="Path_11" data-name="Path 11" d="M250.005,504.87,290,629.8l-32-130Z" opacity="0.2"/>
      <path id="Path_12" data-name="Path 12" d="M253.894,344H228.508a4.178,4.178,0,0,1-4.173-4.173V303.333a4.178,4.178,0,0,1,4.173-4.173h25.387a4.178,4.178,0,0,1,4.173,4.173v36.493A4.178,4.178,0,0,1,253.894,344Zm-25.387-42.84a2.176,2.176,0,0,0-2.173,2.173v36.493A2.176,2.176,0,0,0,228.508,342h25.387a2.176,2.176,0,0,0,2.173-2.173V303.333a2.176,2.176,0,0,0-2.173-2.173Z" transform="translate(-207.801 -83.197)" fill="#3f3d56"/>
      <path id="Path_13" data-name="Path 13" d="M300.264,344H277.338a5.41,5.41,0,0,1-5.4-5.4V264.9a5.41,5.41,0,0,1,5.4-5.4h22.926a5.41,5.41,0,0,1,5.4,5.4v73.7A5.41,5.41,0,0,1,300.264,344Zm-22.926-82.507a3.408,3.408,0,0,0-3.4,3.4v73.7a3.408,3.408,0,0,0,3.4,3.4h22.926a3.408,3.408,0,0,0,3.4-3.4V264.9a3.408,3.408,0,0,0-3.4-3.4Z" transform="translate(-207.801 -83.197)" fill="#3f3d56"/>
      <path id="Path_14" data-name="Path 14" d="M346.979,344H325.824a6.3,6.3,0,0,1-6.289-6.289V229.289A6.3,6.3,0,0,1,325.824,223h21.155a6.3,6.3,0,0,1,6.289,6.289V337.711A6.3,6.3,0,0,1,346.979,344ZM325.824,225a4.294,4.294,0,0,0-4.289,4.289V337.711A4.294,4.294,0,0,0,325.824,342h21.155a4.294,4.294,0,0,0,4.289-4.289V229.289A4.294,4.294,0,0,0,346.979,225Z" transform="translate(-207.801 -83.197)" fill="#3f3d56"/>
      <rect id="Rectangle_2" data-name="Rectangle 2" width="19.04" height="30.94" transform="translate(23.88 222.913)" fill="#6c63ff"/>
      <rect id="Rectangle_3" data-name="Rectangle 3" width="19.04" height="70.21" transform="translate(71.48 183.643)" fill="#6c63ff"/>
      <rect id="Rectangle_4" data-name="Rectangle 4" width="19.04" height="106.703" transform="translate(119.08 147.15)" fill="#6c63ff"/>
      <path id="Path_15" data-name="Path 15" d="M930.8,229h-133a1,1,0,0,1-1-1V93a1,1,0,0,1,2,0V227h132a1,1,0,0,1,0,2Z" transform="translate(-207.801 -83.197)" fill="#3f3d56"/>
      <path id="Path_16" data-name="Path 16" d="M366.8,358h-158a1,1,0,0,1-1-1V200a1,1,0,0,1,2,0V356h157a1,1,0,0,1,0,2Z" transform="translate(-207.801 -83.197)" fill="#3f3d56"/>
      <path id="Path_17" data-name="Path 17" d="M843.7,216.467H818.313a4.178,4.178,0,0,1-4.174-4.173V175.8a4.178,4.178,0,0,1,4.174-4.173H843.7a4.178,4.178,0,0,1,4.173,4.173v36.493a4.178,4.178,0,0,1-4.172,4.173Zm-25.387-42.84a2.176,2.176,0,0,0-2.174,2.173v36.494a2.176,2.176,0,0,0,2.174,2.173H843.7a2.176,2.176,0,0,0,2.173-2.173V175.8a2.176,2.176,0,0,0-2.173-2.173Z" transform="translate(-207.801 -83.197)" fill="#3f3d56"/>
      <path id="Path_18" data-name="Path 18" d="M895.689,216.467H872.323a5.19,5.19,0,0,1-5.184-5.184v-66.1A5.189,5.189,0,0,1,872.323,140h23.366a5.189,5.189,0,0,1,5.184,5.184v66.1a5.19,5.19,0,0,1-5.184,5.184ZM872.323,142a3.187,3.187,0,0,0-3.184,3.184v66.1a3.187,3.187,0,0,0,3.184,3.184h23.366a3.187,3.187,0,0,0,3.184-3.184v-66.1A3.187,3.187,0,0,0,895.689,142Z" transform="translate(-207.801 -83.197)" fill="#3f3d56"/>
      <rect id="Rectangle_5" data-name="Rectangle 5" width="19.04" height="30.94" transform="translate(613.228 95.727)" fill="#6c63ff"/>
      <rect id="Rectangle_6" data-name="Rectangle 6" width="19.04" height="59.864" transform="translate(666.685 65.105)" fill="#6c63ff"/>
      <circle id="Ellipse_7" data-name="Ellipse 7" cx="9" cy="9" r="9" transform="translate(614 59.803)" fill="#6c63ff"/>
      <circle id="Ellipse_8" data-name="Ellipse 8" cx="9" cy="9" r="9" transform="translate(667 25.803)" fill="#6c63ff"/>
    </g>
    <g id="Group_2" data-name="Group 2" transform="translate(236.254 633)">
      <path id="Path_45" data-name="Path 45" d="M440,205h0Z" transform="translate(52.129 443)" fill="#3f3d56"/>
      <circle id="Ellipse_9" data-name="Ellipse 9" cx="61.186" cy="61.186" r="61.186" transform="translate(384.09 272.182)" fill="#6c63ff"/>
      <line id="Line_1" data-name="Line 1" y1="110.988" x2="0.502" transform="translate(445.249 335.071)" fill="#3f3d56" stroke="#3f3d56" stroke-miterlimit="10" stroke-width="2"/>
      <circle id="Ellipse_10" data-name="Ellipse 10" cx="15.695" cy="15.695" r="15.695" transform="translate(429.959 317.338)" fill="#3f3d56"/>
      <path id="Path_21" data-name="Path 21" d="M531.347,515.53s-2.024-48.234-48.014-42.837" transform="translate(-89.258 -112.558)" fill="#3f3d56"/>
      <circle id="Ellipse_11" data-name="Ellipse 11" cx="61.186" cy="61.186" r="61.186" transform="translate(79.338 144.701)" fill="#6c63ff"/>
      <line id="Line_2" data-name="Line 2" y1="225.95" x2="3.521" transform="translate(137.059 209.968)" fill="#3f3d56" stroke="#3f3d56" stroke-miterlimit="10" stroke-width="2"/>
      <circle id="Ellipse_12" data-name="Ellipse 12" cx="15.695" cy="15.695" r="15.695" transform="translate(124.885 190.815)" fill="#3f3d56"/>
      <path id="Path_22" data-name="Path 22" d="M274.455,388.465s-1.49-48.254-47.537-43.365" transform="translate(-134.871 -116.742)" fill="#3f3d56"/>
      <path id="Path_23" data-name="Path 23" d="M272,546.189s11.534-92.568-46.686-97.961" transform="translate(-134.871 -112.296)" fill="none" stroke="#3f3d56" stroke-miterlimit="10" stroke-width="2"/>
      <circle id="Ellipse_13" data-name="Ellipse 13" cx="15.695" cy="15.695" r="15.695" transform="translate(74.745 318.476)" fill="#3f3d56"/>
      <circle id="Ellipse_14" data-name="Ellipse 14" cx="61.186" cy="61.186" r="61.186" transform="translate(241.354 3.6)" fill="#6c63ff"/>
      <line id="Line_3" data-name="Line 3" y1="370.206" transform="translate(305.747 65.01)" fill="#3f3d56" stroke="#3f3d56" stroke-miterlimit="10" stroke-width="2"/>
      <circle id="Ellipse_15" data-name="Ellipse 15" cx="15.695" cy="15.695" r="15.695" transform="translate(289.33 49.139)" fill="#3f3d56"/>
      <circle id="Ellipse_16" data-name="Ellipse 16" cx="15.695" cy="15.695" r="15.695" transform="translate(234.942 327.2)" fill="#3f3d56"/>
      <path id="Path_24" data-name="Path 24" d="M407.012,269.007s-2.242-48.225-48.207-42.619" transform="translate(-105.551 -120.652)" fill="#3f3d56"/>
      <path id="Path_25" data-name="Path 25" d="M407.012,405.719S404.77,357.494,358.8,363.1" transform="translate(-105.551 -116.162)" fill="#3f3d56"/>
      <path id="Path_26" data-name="Path 26" d="M407.012,554.9S417.1,461.164,358.8,456.68" transform="translate(-105.527 -111.985)" fill="none" stroke="#3f3d56" stroke-miterlimit="10" stroke-width="2"/>
      <circle id="Ellipse_17" data-name="Ellipse 17" cx="15.695" cy="15.695" r="15.695" transform="translate(344.806 175.227)" fill="#3f3d56"/>
      <path id="Path_27" data-name="Path 27" d="M407.975,402.673s-10.09-88.736,48.207-93.221" transform="translate(-99.171 -117.362)" fill="none" stroke="#3f3d56" stroke-miterlimit="10" stroke-width="2"/>
      <path id="Path_28" data-name="Path 28" d="M537.871,274a22,22,0,1,1,22-22,22,22,0,0,1-22,22Zm0-42a20,20,0,1,0,20,20,20,20,0,0,0-20-20Z" transform="translate(-85.248 -120.513)" fill="#3f3d56"/>
      <path id="Path_31" data-name="Path 31" d="M134.871,547v0Z" transform="translate(-134.871 -104)" fill="#3f3d56"/>
      <path id="Path_34" data-name="Path 34" d="M965.667,267.5c.644-.438,1.267-.9,1.873-1.393a28.716,28.716,0,0,1-5.971,10.2h0c-.626.69-1.294,1.335-1.981,1.959-.014-.158-.029-.316-.037-.474-.08-1.53.031-3.14.052-4.715A20.116,20.116,0,0,0,965.667,267.5Z" transform="translate(-30.124 -119.558)" fill="url(#linear-gradient)"/>
      <g id="Group_2-2" data-name="Group 2" transform="translate(891.668 76.362)" opacity="0.1">
        <path id="Path_36" data-name="Path 36" d="M942.28,201.429c.079-.039.155-.083.234-.121-.057-.306-.1-.616-.136-.926-.009.065-.021.128-.028.193C942.316,200.861,942.3,201.144,942.28,201.429Z" transform="translate(-921.792 -200.362)"/>
        <path id="Path_37" data-name="Path 37" d="M982.9,230.314a28.251,28.251,0,0,1-4.4,12.089c.021.447.034.9.034,1.349a28.37,28.37,0,0,1-56.649,2.287c-.062.764-.1,1.534-.1,2.314a28.374,28.374,0,1,0,56.749,0c0-.452-.013-.9-.034-1.349a28.287,28.287,0,0,0,4.5-17.815C982.975,229.564,982.948,229.938,982.9,230.314Z" transform="translate(-921.792 -200.362)"/>
        <path id="Path_38" data-name="Path 38" d="M977.377,200.362a17.581,17.581,0,0,1-2.328,6.748c.5.51.965,1.043,1.421,1.588a17.655,17.655,0,0,0,.907-8.336Z" transform="translate(-921.792 -200.362)"/>
      </g>
      <g id="Group_3" data-name="Group 3" transform="translate(884.589 270.451)" opacity="0.1">
        <path id="Path_44" data-name="Path 44" d="M914.713,388.866a2.819,2.819,0,0,0,2.128-1.921,2.056,2.056,0,0,0,.034-.573c-.211.153-.425.3-.633.463a5.042,5.042,0,0,0-1.53,2.031Z" transform="translate(-914.713 -386.372)"/>
      </g>
    </g>
    <g id="Symbols" transform="translate(1312 798)">
      <g id="Scene_Home" data-name="Scene/Home" transform="translate(-537 -328)">
        <g id="Plant" transform="translate(537 328)">
          <g id="Succulents" transform="translate(13)">
            <path id="Thi-Succs_" data-name="Thi-Succs!" d="M3.381.208C12.214,21.2,27.229,35.78,35.182,57.6c4.716,12.943,6.682,27.015,6.8,41.427.065,7.828-.071,15.662-.108,23.49-.036,7.634-.243,15.219-.891,22.8-.651,7.625-1.38,15.16-1.7,22.832-.25,5.978-.365,12.932-2.391,18.385-1.611,4.337-5.707,4.972-6.794-.288a42.041,42.041,0,0,1-.461-9.193c.086-3.855.31-7.7.424-11.559.46-15.468-.136-30.938.175-46.412.3-15.119,2.248-30.221.1-45.239-1.776-12.4-6.287-23.051-11.471-33.26C13.874,30.771,8.445,21.187,5.075,10.014A53.841,53.841,0,0,1,3,.03Q3.235-.079,3.381.208Z" fill="#0b55e8" fill-rule="evenodd"/>
            <path id="Thi-Succs_2" data-name="Thi-Succs!" d="M.974,41.617C2.723,42.88,3.7,44.728,4.882,46.55c1.47,2.267,3.2,4.313,4.668,6.581C12.615,57.86,15.308,62.879,18.1,67.8a96.066,96.066,0,0,1,11.326,30.1c2.067,11.2,2.625,22.753,3.492,34.117.92,12.044,1.846,24.176,1.968,36.267.055,5.417.347,11.167-.3,16.546-.4,3.348-1.916,6.2-5.323,6.175-7.236-.058-10.634-8.073-12.053-14.646-2.089-9.68-2.506-19.961-2.175-29.86.4-11.936,2.471-23.692,3.368-35.582.95-12.587.413-24.952-3.914-36.8-2.186-5.989-4.724-11.835-7-17.784a57.491,57.491,0,0,0-3.075-7.494C2.951,46.208,1.142,43.826,0,41Z" fill="#0b55e8" fill-rule="evenodd"/>
            <path id="Thi-Succs_3" data-name="Thi-Succs!" d="M84.334,16.518,85,16a66.168,66.168,0,0,1-2.676,7.341,59.9,59.9,0,0,0-1.729,7.136c-1.255,5.681-2.7,11.234-3.889,16.963-2.346,11.337-1.9,23.55-.364,36.128,1.453,11.881,3.751,23.745,4.845,35.624a163.547,163.547,0,0,1,.432,29.409c-.588,6.383-2.517,14.005-7.771,13.361-2.474-.3-3.764-3.281-4.284-6.642-.835-5.4-1.01-11.074-1.335-16.442-.726-11.982-.871-23.927-1.015-35.786-.136-11.188-.51-22.6.238-33.5a102.688,102.688,0,0,1,6.2-28.758c1.7-4.61,3.317-9.328,5.225-13.721.915-2.107,2.033-3.97,2.949-6.075C82.563,19.339,83.148,17.6,84.334,16.518Z" fill="#0b55e8" fill-rule="evenodd"/>
            <path id="Thi-Succs_4" data-name="Thi-Succs!" d="M3.209,76.3c.957-1.607,3.063,3.692,3.384,4.358q-.2-.5-.409-.993A44.093,44.093,0,0,1,10.9,89.734c1.069,3.585,1.987,7.242,2.99,10.853,1.882,6.774,4.31,13.356,6.016,20.191a65.7,65.7,0,0,1,1.678,20.1,171.682,171.682,0,0,0-.186,21.587c.233,3.418,1.344,6.6,2.1,9.892s1.362,6.632,2.263,9.885c.207-.424.233.993.233,1.1a6.832,6.832,0,0,1-.381,2.265,6.1,6.1,0,0,1-3.841,4.212c-3.456.987-6.666-2.157-7.78-5.477A90.86,90.86,0,0,1,10.755,169.3,70.881,70.881,0,0,1,10.1,155.44c.409-9.179,2.07-18.238,2.519-27.414.489-9.99-1.49-19.377-3.147-29.1A84.98,84.98,0,0,0,6.356,85.134a38.759,38.759,0,0,0-2.309-5.072C3.558,79.112,2.569,77.418,3.209,76.3Z" fill="#0b55e8" fill-rule="evenodd"/>
            <path id="Thi-Succs_5" data-name="Thi-Succs!" d="M31.252,60.7c-.4,11.445-1.08,22.8-2.606,34.127C27.089,106.38,25.3,117.9,23.8,129.463c-1.459,11.259-2.987,22.705-2.784,34.122.15,8.408-1.244,22.634,8.095,26.784,9.459,4.2,11.488-13.746,12.109-19.67,1.19-11.366.8-22.852.227-34.28-.593-11.73-1.583-23.4-2.81-35.085-1.363-12.981-2.432-26.021-3.29-39.038-.425-6.439-.529-12.867-.412-19.308.111-6.077-.12-12.218-2.281-17.988l-.339.246" fill="#0b55e8" fill-rule="evenodd"/>
            <path id="Thi-Succs_6" data-name="Thi-Succs!" d="M80.083,96.955c-1.7,2.478-3.416,4.932-5.022,7.557-2.874,4.7-5.474,9.92-6.256,16.635-1.636,14.053-.324,29.232-.007,43.716.065,2.959-.31,5.83.857,8.647,1.058,2.554,3.035,4.5,4.92,4.49,4.035-.023,3.42-9.9,3.426-14.254.012-7.623-.843-15.324-.769-22.94a159.266,159.266,0,0,1,1.626-22.278,128.363,128.363,0,0,1,4.87-20.718c.3-.9,2.429-7.872.415-6.671" fill="#0b55e8" fill-rule="evenodd"/>
            <path id="Thi-Succs_7" data-name="Thi-Succs!" d="M62.262,22c-2.653,0-2.637,13.226-2.717,14.925-.288,6.131-.221,12.263-.4,18.395-.4,13.381-.889,26.88-2.9,40.107-1.082,7.121-2.337,14.21-3.686,21.276-1.353,7.087-3.17,14.165-4.06,21.342-.855,6.9-.372,13.933-.255,20.866a182.661,182.661,0,0,0,1.242,20.878c.225,1.706.49,3.407.773,5.1a40.444,40.444,0,0,0,.5,4.51c.639,2.151,3.379,2.855,5.224,2.519,4.993-.911,8.181-7.18,9.887-11.76,2.178-5.849,3.334-12.193,4.474-18.356a160.442,160.442,0,0,0,2.4-21.181c.722-14.448-.2-28.911-1.24-43.313-.576-8.009-1.241-15.984-2.258-23.943-1.013-7.926-2.313-15.816-3.16-23.765-.615-5.777-1.221-11.561-1.619-17.36-.1-1.383-.175-10.241-2.2-10.241" fill="#0b55e8" fill-rule="evenodd"/>
            <path id="Thi-Succs_8" data-name="Thi-Succs!" d="M58.941,118.139c-.432-13.886-6.014-74.88-7.284-91.672-.318-4.2-3.375-21.7-3.772-26.467-1.075,1.347-.983,22.309-.972,27.126.013,4.765-.578,9.45-.882,14.189-.31,4.836-7.458,67.285-8.386,71.932-1.846,9.244-3.081,18.729-4.034,28.181-.928,9.211-2.371,18.93-1.129,28.19a28.3,28.3,0,0,0,1.473,6.188c.795,2.116,1.339,4.073,1.977,6.287,1.026,3.566,2.883,6.7,5.736,8.169,5.849,3.019,8.99-3.815,10.583-9.765a159.225,159.225,0,0,0,4.94-29.138c.847-11.041,2.1-22.1,1.75-33.22" fill="#0b55e8" fill-rule="evenodd"/>
          </g>
          <g id="Planter" transform="translate(0 159)">
            <rect id="Vase" width="91" height="91" rx="2" transform="translate(10)" fill="#fff"/>
            <rect id="Leg" width="10" height="113" rx="2" transform="translate(0 10)" fill="#c5cfd6"/>
            <rect id="Leg-2" data-name="Leg" width="10" height="113" rx="2" transform="translate(50 10)" fill="#c5cfd6"/>
            <rect id="Leg-3" data-name="Leg" width="10" height="113" rx="2" transform="translate(101 10)" fill="#c5cfd6"/>
          </g>
        </g>
      </g>
    </g>
    <g id="Path_46" data-name="Path 46" transform="translate(1191 568)" fill="#1acbe7">
      <path d="M 93.5 55.5 L 0.5 55.5 L 0.5 0.5 L 93.5 0.5 L 93.5 55.5 Z" stroke="none"/>
      <path d="M 1 1 L 1 55 L 93 55 L 93 1 L 1 1 M 0 0 L 94 0 L 94 56 L 0 56 L 0 0 Z" stroke="none" fill="#707070"/>
    </g>
    <path id="Path_47" data-name="Path 47" d="M1152,524l28.6,14.706h88.8L1245.615,524Z" transform="translate(39 100)" fill="#1b14d6" stroke="#707070" stroke-width="1"/>
    <g id="Path_48" data-name="Path 48" transform="translate(954 631)" fill="#0ec6e3">
      <path d="M 40.5 57.56793594360352 L 21.83336067199707 57.56793594360352 L 0.5 57.56793594360352 L 0.5 0.5000060796737671 L 40.5 0.5000060796737671 L 40.5 57.56793594360352 Z" stroke="none"/>
      <path d="M 1 0.9999961853027344 L 1 57.06792449951172 L 21.83336067199707 57.06792449951172 L 40 57.06792449951172 L 40 0.9999961853027344 L 1 0.9999961853027344 M 0 -3.814697265625e-06 L 41 -3.814697265625e-06 L 41 58.06792449951172 L 21.83336067199707 58.06792449951172 L 0 58.06792449951172 L 0 -3.814697265625e-06 Z" stroke="none" fill="#530edc"/>
    </g>
    <line id="Line_4" data-name="Line 4" x2="41" transform="translate(954.5 641.5)" fill="none" stroke="#1945ec" stroke-width="1"/>
  </g>
</svg>
